<svg width="254" height="63" viewBox="0 0 254 63" fill="none" xmlns="http://www.w3.org/2000/svg">
<path d="M57.2466 63L57.0655 29.61L40.761 56.79H32.79L16.5762 30.51V63H0V0H14.7646L37.0473 36.36L58.7865 0H73.551L73.7322 63H57.2466Z" fill="white"/>
<path d="M130.988 49.23V63H80.082V0H129.81V13.77H97.8357V24.39H126.006V37.71H97.8357V49.23H130.988Z" fill="white"/>
<path d="M134.6 0H164.582C171.526 0 177.686 1.29 183.06 3.87C188.435 6.45 192.601 10.11 195.56 14.85C198.519 19.59 199.999 25.14 199.999 31.5C199.999 37.86 198.519 43.41 195.56 48.15C192.601 52.89 188.435 56.55 183.06 59.13C177.686 61.71 171.526 63 164.582 63H134.6V0ZM163.857 48.78C169.292 48.78 173.64 47.25 176.901 44.19C180.222 41.13 181.883 36.9 181.883 31.5C181.883 26.1 180.222 21.87 176.901 18.81C173.64 15.75 169.292 14.22 163.857 14.22H152.535V48.78H163.857Z" fill="white"/>
<path d="M254 49.23V63H203.094V0H252.822V13.77H220.848V24.39H249.018V37.71H220.848V49.23H254Z" fill="white"/>
</svg>
